<?xml version="1.0" encoding="UTF-8"?>
<svg width="24px" height="24px" viewBox="0 0 24 24" version="1.1" xmlns="http://www.w3.org/2000/svg" xmlns:xlink="http://www.w3.org/1999/xlink">
    <g stroke="none" stroke-width="1" fill="none" fill-rule="evenodd">
        <path d="M20.046875,6.453125 L14.5,12 L20.046875,17.546875 L22.296875,15.296875 C22.5989598,14.9739567 22.9635395,14.9010408 23.390625,15.078125 C23.796877,15.2552092 24,15.5624978 24,16 L24,23 C24,23.2708347 23.9010427,23.5052073 23.703125,23.703125 C23.5052073,23.9010427 23.2708347,24 23,24 L16,24 C15.5624978,24 15.2552092,23.7916688 15.078125,23.375 C14.9010408,22.968748 14.9739567,22.6093766 15.296875,22.296875 L17.546875,20.046875 L12,14.5 L6.453125,20.046875 L8.703125,22.296875 C9.02604328,22.6093766 9.09895922,22.968748 8.921875,23.375 C8.74479078,23.7916688 8.43750219,24 8,24 L1,24 C0.729165312,24 0.494792656,23.9010427 0.296875,23.703125 C0.0989573438,23.5052073 0,23.2708347 0,23 L0,16 C0,15.5624978 0.20833125,15.2552092 0.625,15.078125 C1.03125203,14.9010408 1.39062344,14.9739567 1.703125,15.296875 L3.953125,17.546875 L9.5,12 L3.953125,6.453125 L1.703125,8.703125 C1.50520734,8.90104266 1.27083469,9 1,9 C0.874999375,9 0.750000625,8.97395859 0.625,8.921875 C0.20833125,8.74479078 0,8.43750219 0,8 L0,1 C0,0.729165312 0.0989573438,0.494792656 0.296875,0.296875 C0.494792656,0.0989573438 0.729165312,0 1,0 L8,0 C8.43750219,0 8.74479078,0.20833125 8.921875,0.625 C9.09895922,1.03125203 9.02604328,1.39062344 8.703125,1.703125 L6.453125,3.953125 L12,9.5 L17.546875,3.953125 L15.296875,1.703125 C14.9739567,1.39062344 14.9010408,1.03125203 15.078125,0.625 C15.2552092,0.20833125 15.5624978,0 16,0 L23,0 C23.2708347,0 23.5052073,0.0989573438 23.703125,0.296875 C23.9010427,0.494792656 24,0.729165312 24,1 L24,8 C24,8.43750219 23.796877,8.74479078 23.390625,8.921875 C23.2552077,8.97395859 23.1250006,9 23,9 C22.7291653,9 22.4947927,8.90104266 22.296875,8.703125 L20.046875,6.453125 Z" id="cross" fill="#989898"></path>
    </g>
</svg>
